<svg xmlns="http://www.w3.org/2000/svg" version="1.1" xmlns:xlink="http://www.w3.org/1999/xlink" xmlns:svgjs="http://svgjs.dev/svgjs" width="1500" height="759" viewBox="0 0 1500 759"><g transform="matrix(1,0,0,1,-1.85062500000015,0.8585905858282672)"><svg viewBox="0 0 152 77" data-background-color="#ffffff" preserveAspectRatio="xMidYMid meet" height="759" width="1500" xmlns="http://www.w3.org/2000/svg" xmlns:xlink="http://www.w3.org/1999/xlink"><g id="tight-bounds" transform="matrix(1,0,0,1,0.18753000000000952,-0.08710339276518653)"><svg viewBox="0 0 151.62493999999998 77.17420678553039" height="77.17420678553039" width="151.62493999999998"><g><svg viewBox="0 0 151.62493999999998 77.17420678553039" height="77.17420678553039" width="151.62493999999998"><g><svg viewBox="0 0 151.62493999999998 77.17420678553039" height="77.17420678553039" width="151.62493999999998"><g id="textblocktransform"><svg viewBox="0 0 151.62493999999998 77.17420678553039" height="77.17420678553039" width="151.62493999999998" id="textblock"><g><svg viewBox="0 0 151.62493999999998 52.84388" height="52.84388" width="151.62493999999998"><g><svg><g></g><g></g></svg></g><g><svg><g><svg></svg></g><g></g></svg></g><g id="text-0"><svg viewBox="0 0 151.62493999999998 52.84388" height="52.84388" width="151.62493999999998"><g transform="matrix(1,0,0,1,0,0)"><svg width="85.22005999999999" viewBox="2.2 -35 57.589999999999996 35.5" height="52.84388" data-palette-color="#4c4c4e"><g class="wordmark-text-0" data-fill-palette-color="primary"><path d="M14.2 0L14.2 0 14.2-34.2Q14.2-34.6 14.38-34.75 14.55-34.9 15.38-34.95 16.2-35 18.25-35L18.25-35 18.25-0.8Q18.25-0.4 18.1-0.25 17.95-0.1 17.1-0.05 16.25 0 14.2 0ZM2.2 0L2.2 0 2.2-34.2Q2.2-34.6 2.35-34.75 2.5-34.9 3.35-34.95 4.2-35 6.25-35L6.25-35 6.25-0.8Q6.25-0.4 6.1-0.25 5.95-0.1 5.1-0.05 4.25 0 2.2 0ZM16.05-16.95L4.2-16.95 4.2-20.75 16.05-20.75 16.05-16.95ZM22.75 0L22.75 0 22.75-23.15Q22.75-24.1 23.1-24.48 23.45-24.85 24.35-24.93 25.25-25 26.9-25L26.9-25 26.9-0.8Q26.9-0.4 26.72-0.25 26.55-0.1 25.7-0.05 24.85 0 22.75 0ZM24.7-28.45L24.7-28.45Q23.75-28.5 23.2-29.18 22.65-29.85 22.65-31.6L22.65-31.6Q22.7-32.95 23.25-33.77 23.8-34.6 25-34.6L25-34.6Q26.15-34.6 26.6-33.95 27.05-33.3 27-31.7L27-31.7Q27-30.2 26.42-29.33 25.85-28.45 24.7-28.45ZM31.45 0L31.45 0 31.45-23.25Q32.9-24.3 34.65-24.9 36.4-25.5 38.25-25.5L38.25-25.5Q40.2-25.5 40.97-24.98 41.75-24.45 41.75-23.4L41.75-23.4Q41.75-23 41.65-22.33 41.55-21.65 41.3-21L41.3-21Q40.75-21.3 40.15-21.45 39.55-21.6 38.9-21.6L38.9-21.6Q38.05-21.6 37.17-21.33 36.3-21.05 35.59-20.5L35.59-20.5 35.55-0.8Q35.55-0.4 35.37-0.25 35.2-0.1 34.34-0.05 33.49 0 31.45 0ZM51.54 0.5L51.54 0.5Q49.64 0.5 48.17 0.03 46.69-0.45 45.69-1.8 44.69-3.15 44.19-5.73 43.69-8.3 43.69-12.5L43.69-12.5Q43.69-19.35 45.89-22.43 48.09-25.5 51.99-25.5L51.99-25.5Q54.64-25.5 56.37-24.4 58.09-23.3 58.94-20.5 59.79-17.7 59.79-12.65L59.79-12.65Q59.79-5.65 57.69-2.58 55.59 0.5 51.54 0.5ZM51.64-2.95L51.64-2.95Q52.74-2.95 53.57-3.73 54.39-4.5 54.89-6.6 55.39-8.7 55.39-12.6L55.39-12.6Q55.39-16.6 54.99-18.63 54.59-20.65 53.84-21.35 53.09-22.05 51.84-22.05L51.84-22.05Q50.74-22.05 49.89-21.28 49.04-20.5 48.57-18.4 48.09-16.3 48.09-12.4L48.09-12.4Q48.09-9.35 48.34-7.45 48.59-5.55 49.02-4.58 49.44-3.6 50.14-3.28 50.84-2.95 51.64-2.95Z" fill="#4c4c4e" data-fill-palette-color="primary"></path></g></svg></g><g><svg xmlns="http://www.w3.org/2000/svg" xmlns:xlink="http://www.w3.org/1999/xlink" version="1.1" x="98.78106" y="0" viewBox="12 12 256 256" enable-background="new 0 0 280 280" xml:space="preserve" height="52.84388" width="52.84388" class="icon-cg-0" data-fill-palette-color="accent" id="cg-0"><g fill="#4c4c4e" data-fill-palette-color="accent"><path d="M140 12C69.418 12 12 69.421 12 140c0 70.58 57.419 128 128 128 70.579 0 128-57.42 128-128C268 69.421 210.578 12 140 12zM140 47.973c20.581 0 39.401 6.068 53.911 16.095l-9.109 8.772-1.197 1.152c-3.656-2.026-7.471-3.758-11.377-5.189-5.162-1.88-10.492-3.271-15.896-4.138-2.912-0.454-5.842-0.754-8.775-0.926 0-4.068 0-7.048 0-8.394-5.033-0.179-10.073-0.179-15.107 0 0 1.346 0 4.325 0 8.395-2.937 0.172-5.868 0.472-8.781 0.928-5.404 0.864-10.733 2.259-15.896 4.139-3.903 1.431-7.716 3.162-11.372 5.189L95.2 72.84l-9.108-8.772C100.602 54.041 119.418 47.973 140 47.973zM171.992 89.816c-0.119 0.614-0.186 1.358-0.203 1.948l-0.076 1.74-0.154 3.478-0.525 11.812h-62.065l-0.526-11.812-0.153-3.478-0.078-1.738c-0.016-0.592-0.083-1.335-0.202-1.95-0.494-2.546-1.479-4.819-2.844-6.92-0.35-0.522-0.725-1.028-1.15-1.512-0.467-0.538-0.871-0.885-1.29-1.299l-2.508-2.415-2.509-2.416c3.373-1.994 6.902-3.739 10.538-5.215 5.014-2.027 10.23-3.58 15.555-4.631 2.854-0.582 5.742-1.015 8.647-1.319 0 2.104 0 4.482 0 7.079-5.28 0.188-10.554 0.57-15.813 1.151 0 5.029 0 10.057 0 15.089 5.259-0.582 10.532-0.967 15.813-1.154 0 5.274 0 10.549 0 15.822 5.034-0.179 10.074-0.179 15.107 0 0-5.273 0-10.548 0-15.822 5.281 0.188 10.555 0.572 15.813 1.154 0-5.032 0-10.06 0-15.089-5.258-0.581-10.531-0.964-15.813-1.151 0-2.595 0-4.975 0-7.078 2.902 0.307 5.787 0.738 8.641 1.321 5.326 1.05 10.541 2.604 15.555 4.63 3.637 1.476 7.166 3.223 10.539 5.217l-2.504 2.412-2.506 2.415c-0.422 0.416-0.824 0.761-1.291 1.299-0.426 0.483-0.803 0.989-1.15 1.512C173.471 84.997 172.486 87.271 171.992 89.816zM188.98 114.389c5.445 0 9.877 4.431 9.877 9.876v60.949c0 5.447-4.432 9.879-9.877 9.879H91.019c-5.445 0-9.877-4.432-9.877-9.879v-60.949c0-5.445 4.432-9.876 9.877-9.876H188.98zM54.481 131.1c-1.662 0.875-3.214 1.932-4.594 3.166-3.854 3.4-6.406 8.104-7.01 12.974 1.319-4.732 4.432-8.731 8.329-11.26 1.043-0.684 2.143-1.255 3.274-1.731v33.902c-1.133-0.477-2.231-1.049-3.274-1.73-3.899-2.529-7.011-6.529-8.33-11.261 0.604 4.87 3.157 9.573 7.01 12.976 1.383 1.229 2.933 2.291 4.595 3.166v3.056c-10.589-3.45-18.227-12.999-18.227-24.218 0-11.218 7.638-20.766 18.227-24.215V131.1zM56.956 187.51v-72.382c0-20.41 11.274-38.68 29.043-50.995l8.307 9.56 0.881 1.016C89.661 77.904 84.51 81.773 80 86.371c-7.755 7.918-13.484 18.112-15.4 29.251-0.483 2.769-0.733 5.599-0.748 8.401l-0.072 8.174-0.143 16.352-0.231 32.7-0.043 8.176-0.011 2.043c0 0.68-0.017 1.345 0.012 2.126 0.056 1.523 0.253 3.008 0.592 4.479 1.184 5.184 4.188 9.894 8.322 13.228C63.265 207.148 56.956 198.041 56.956 187.51zM188.395 253.146c-0.027-0.051-0.045-0.105-0.076-0.155l-0.043-0.065c-1.982-3.145-4.631-5.924-7.537-8.151-2.924-2.238-6.145-4.004-9.492-5.356-2.023-0.816-4.098-1.463-6.195-1.985-0.168 0.385-0.383 0.769-0.641 1.151 2.086 0.702 4.119 1.531 6.068 2.523 3.086 1.57 5.967 3.508 8.475 5.803 2.434 2.241 4.461 4.773 5.986 7.656-13.922 5.467-29.076 8.486-44.94 8.486-15.862 0-31.016-3.02-44.938-8.486 1.492-2.832 3.553-5.422 5.986-7.658 2.509-2.293 5.389-4.23 8.475-5.801 1.948-0.992 3.982-1.821 6.066-2.523-0.26-0.382-0.474-0.767-0.642-1.15-2.098 0.521-4.168 1.169-6.192 1.984-3.349 1.353-6.568 3.118-9.492 5.356-2.914 2.242-5.535 4.971-7.559 8.187-0.027 0.045-0.057 0.094-0.08 0.142-0.008 0.016-0.01 0.029-0.018 0.044-4.067-1.741-8.027-3.684-11.855-5.837 6.986-8.278 19.387-13.787 33.529-13.787h1.575c0.093-0.199 0.199-0.392 0.326-0.576-0.468-0.87-0.706-1.742-0.708-2.604 0-0.862 0.245-1.651 0.708-2.324-0.468-0.872-0.706-1.742-0.708-2.606 0-0.861 0.245-1.649 0.708-2.321-0.468-0.871-0.706-1.743-0.708-2.607 0-0.862 0.245-1.65 0.708-2.323-0.274-0.51-0.46-1.02-0.575-1.528l2.626 0.005c0.124 0.377 0.321 0.712 0.521 0.998 0.74 0.989 1.672 1.708 2.628 2.358 1.93 1.281 4.038 2.217 6.192 2.964 2.162 0.739 4.393 1.241 6.64 1.573 2.249 0.328 4.523 0.457 6.786 0.374 2.261 0.082 4.537-0.046 6.787-0.376 2.246-0.331 4.479-0.834 6.639-1.572 2.156-0.749 4.264-1.684 6.193-2.965 0.957-0.651 1.889-1.37 2.629-2.359 0.201-0.283 0.396-0.618 0.521-0.993l2.625-0.005c-0.115 0.508-0.301 1.018-0.576 1.527 0.465 0.672 0.709 1.46 0.709 2.322 0 0.861-0.238 1.734-0.709 2.607 0.465 0.673 0.709 1.46 0.709 2.321 0 0.862-0.238 1.734-0.709 2.609 0.465 0.671 0.709 1.46 0.709 2.321 0 0.859-0.238 1.731-0.707 2.604 0.127 0.185 0.232 0.377 0.326 0.576h1.578c14.141 0 26.541 5.509 33.527 13.787C196.422 249.463 192.461 251.405 188.395 253.146zM151.117 219.134c-3.609 1.024-7.369 1.552-11.109 1.499-3.771 0.051-7.509-0.475-11.125-1.501-2.16-0.631-4.315-1.426-6.296-2.486l0.612 0.001c1.099 0.527 2.228 0.982 3.373 1.381 2.162 0.738 4.393 1.241 6.64 1.572 2.249 0.33 4.523 0.458 6.786 0.374 2.261 0.082 4.537-0.045 6.787-0.375 2.246-0.331 4.479-0.836 6.639-1.573 1.145-0.396 2.271-0.852 3.367-1.377l0.623-0.002C155.434 217.707 153.277 218.502 151.117 219.134zM159.371 217.23c0.336-0.009 0.766 0.125 0.598 0.352-1.441 1.941-9.744 4.962-12.098 4.402-0.27-0.064-0.031-0.445 0.234-0.652L159.371 217.23zM131.895 221.332c0.261 0.207 0.502 0.588 0.232 0.652-2.352 0.56-10.656-2.461-12.098-4.402-0.164-0.227 0.262-0.36 0.6-0.352L131.895 221.332zM203.404 208.672c-2.037 1.327-4.316 2.271-6.688 2.76-1.184 0.242-2.398 0.372-3.605 0.387l-4.059-0.004-98.099 0.003-4.056 0.003c-1.212-0.013-2.422-0.142-3.608-0.384-2.372-0.489-4.654-1.424-6.69-2.755-4.083-2.651-7.124-6.899-8.258-11.646-0.288-1.179-0.46-2.407-0.519-3.606-0.03-0.58-0.023-1.279-0.028-1.962l-0.012-2.043-0.044-8.176-0.232-32.7-0.141-16.352-0.072-8.174c-0.023-2.647 0.142-5.27 0.528-7.879 1.527-10.461 6.688-20.273 13.953-28.094 4.252-4.648 9.212-8.636 14.601-11.975l2.496 2.873 2.283 2.628c0.369 0.433 0.801 0.896 1.057 1.266 0.306 0.418 0.583 0.87 0.838 1.339 1.007 1.877 1.697 4.025 1.896 6.066 0.049 0.532 0.049 0.95 0.02 1.519l-0.078 1.738-0.154 3.478-0.525 11.812H91.019c-8.51 0-15.473 6.963-15.473 15.471v60.949c0 8.512 6.963 15.474 15.473 15.474h97.961c8.512 0 15.475-6.962 15.475-15.474v-60.949c0-8.508-6.963-15.471-15.475-15.471h-13.188l-0.525-11.812-0.152-3.478-0.078-1.74c-0.031-0.566-0.031-0.984 0.018-1.517 0.199-2.042 0.891-4.189 1.896-6.066 0.254-0.469 0.533-0.921 0.84-1.339 0.256-0.37 0.686-0.833 1.057-1.266l2.283-2.628 2.49-2.868c5.389 3.338 10.348 7.325 14.598 11.971 7.268 7.819 12.426 17.63 13.955 28.088 0.186 1.303 0.34 2.612 0.416 3.926 0.055 0.661 0.07 1.304 0.096 1.949l0.018 2.003-0.07 8.176-0.145 16.35-0.23 32.7-0.043 8.176-0.01 2.043c-0.006 0.692 0 1.367-0.029 1.952-0.059 1.22-0.23 2.432-0.518 3.616C210.525 201.773 207.486 206.022 203.404 208.672zM223.047 187.51c0 10.517-6.293 19.614-15.289 23.773 4.121-3.334 7.117-8.037 8.297-13.215 0.34-1.469 0.537-2.968 0.592-4.471 0.029-0.777 0.012-1.467 0.01-2.136l-0.01-2.043-0.043-8.176-0.23-32.7-0.145-16.35-0.07-8.176-0.055-2.083c-0.039-0.716-0.072-1.436-0.143-2.132-0.119-1.404-0.316-2.801-0.551-4.188-0.965-5.552-2.871-10.909-5.512-15.839-2.656-4.927-6.018-9.439-9.896-13.415-4.508-4.595-9.658-8.462-15.184-11.656l0.879-1.012 8.307-9.56c17.768 12.316 29.043 30.585 29.043 50.995V187.51zM225.52 174.356v-3.058c1.662-0.875 3.211-1.936 4.594-3.164 3.854-3.402 6.406-8.105 7.01-12.976-1.322 4.731-4.432 8.73-8.332 11.26-1.041 0.681-2.139 1.254-3.271 1.73V134.25c1.133 0.475 2.23 1.047 3.271 1.731 3.9 2.526 7.01 6.525 8.332 11.258-0.605-4.87-3.156-9.573-7.01-12.974-1.379-1.234-2.93-2.291-4.594-3.165v-5.177c10.59 3.45 18.225 12.997 18.225 24.215S236.109 170.904 225.52 174.356z" fill="#4c4c4e" data-fill-palette-color="accent"></path><path d="M161.605 233.816l-0.301-0.156-0.27 0.236c-2.766 2.427-6.34 3.908-9.918 4.955-3.607 1.025-7.369 1.554-11.109 1.5-3.771 0.051-7.509-0.475-11.125-1.501-3.578-1.048-7.153-2.527-9.916-4.955l-0.269-0.235-0.306 0.153c-0.546 0.276-1.213 0.829-1.282 1.65-0.067 0.776 0.297 1.395 0.642 1.887 0.738 0.989 1.671 1.709 2.628 2.358 1.93 1.281 4.036 2.216 6.192 2.965 2.161 0.738 4.393 1.242 6.64 1.573 2.249 0.33 4.523 0.457 6.786 0.374 2.261 0.082 4.537-0.044 6.787-0.376 2.246-0.331 4.479-0.835 6.639-1.572 2.156-0.749 4.264-1.683 6.193-2.965 0.957-0.651 1.889-1.37 2.629-2.359 0.344-0.49 0.709-1.112 0.643-1.872C162.813 234.632 162.154 234.1 161.605 233.816zM132.127 241.702c-2.352 0.56-10.658-2.463-12.098-4.403-0.167-0.224 0.262-0.36 0.6-0.351l11.266 4.099C132.156 241.256 132.395 241.636 132.127 241.702zM159.971 237.299c-1.441 1.94-9.746 4.963-12.098 4.403-0.271-0.066-0.031-0.446 0.232-0.655l11.266-4.099C159.707 236.938 160.137 237.075 159.971 237.299z" fill="#4c4c4e" data-fill-palette-color="accent"></path><path d="M161.605 228.888l-0.301-0.155-0.271 0.236c-2.762 2.427-6.338 3.907-9.916 4.953-3.607 1.025-7.369 1.552-11.109 1.5-3.771 0.049-7.509-0.475-11.125-1.5-3.578-1.047-7.155-2.526-9.916-4.955l-0.269-0.234-0.304 0.152c-0.548 0.274-1.215 0.829-1.284 1.649-0.069 0.776 0.297 1.396 0.642 1.887 0.738 0.989 1.671 1.708 2.628 2.359 1.93 1.282 4.036 2.216 6.192 2.966 2.161 0.737 4.393 1.241 6.64 1.571 2.249 0.33 4.523 0.458 6.786 0.374 2.261 0.083 4.537-0.045 6.787-0.375 2.248-0.33 4.479-0.836 6.641-1.574 2.156-0.749 4.262-1.683 6.191-2.965 0.957-0.651 1.891-1.369 2.629-2.358 0.346-0.489 0.707-1.116 0.645-1.872C162.816 229.697 162.152 229.17 161.605 228.888zM132.127 236.774c-2.351 0.563-10.65-2.464-12.098-4.404-0.167-0.224 0.262-0.359 0.6-0.349l11.265 4.1C132.156 236.331 132.395 236.709 132.127 236.774zM159.971 232.37c-1.449 1.94-9.748 4.968-12.1 4.404-0.27-0.065-0.031-0.443 0.234-0.653l11.266-4.1C159.707 232.011 160.137 232.146 159.971 232.37z" fill="#4c4c4e" data-fill-palette-color="accent"></path><path d="M120.38 229.852c1.93 1.281 4.036 2.217 6.192 2.964 2.161 0.739 4.393 1.241 6.64 1.572 2.249 0.33 4.523 0.458 6.786 0.374 2.261 0.083 4.537-0.044 6.787-0.374 2.246-0.332 4.479-0.836 6.639-1.573 2.156-0.748 4.264-1.683 6.193-2.965 0.957-0.65 1.889-1.369 2.629-2.357 0.344-0.492 0.709-1.113 0.643-1.874-0.076-0.845-0.734-1.376-1.283-1.659l-0.301-0.156-0.27 0.237c-2.766 2.425-6.34 3.907-9.918 4.953-3.609 1.023-7.369 1.552-11.109 1.499-3.771 0.05-7.509-0.476-11.125-1.501-3.578-1.047-7.153-2.526-9.916-4.953l-0.269-0.235-0.306 0.154c-0.546 0.274-1.213 0.828-1.282 1.648-0.067 0.776 0.297 1.395 0.642 1.887C118.493 228.481 119.423 229.201 120.38 229.852zM148.105 231.188l11.266-4.101c0.336-0.007 0.766 0.126 0.6 0.35-1.441 1.943-9.744 4.966-12.1 4.405C147.602 231.777 147.842 231.398 148.105 231.188zM120.629 227.088l11.265 4.101c0.262 0.21 0.501 0.589 0.233 0.654-2.354 0.561-10.656-2.462-12.098-4.405C119.863 227.214 120.292 227.081 120.629 227.088z" fill="#4c4c4e" data-fill-palette-color="accent"></path><path d="M120.38 224.922c1.931 1.282 4.038 2.217 6.192 2.965 2.162 0.737 4.393 1.24 6.64 1.571 2.249 0.329 4.523 0.456 6.786 0.373 2.261 0.083 4.537-0.045 6.787-0.373 2.246-0.331 4.479-0.837 6.639-1.573 2.156-0.748 4.264-1.684 6.193-2.964 0.957-0.65 1.887-1.37 2.629-2.356 0.344-0.492 0.707-1.113 0.643-1.876-0.074-0.843-0.734-1.376-1.283-1.657l-0.301-0.155-0.27 0.236c-2.766 2.424-6.342 3.904-9.918 4.951-3.609 1.024-7.369 1.552-11.109 1.5-3.771 0.05-7.509-0.476-11.125-1.501-3.578-1.047-7.153-2.526-9.916-4.953l-0.268-0.233-0.305 0.151c-0.548 0.273-1.218 0.828-1.284 1.651-0.067 0.775 0.298 1.393 0.642 1.886C118.493 223.553 119.424 224.271 120.38 224.922zM148.105 226.262l11.266-4.1c0.336-0.01 0.766 0.126 0.6 0.348-1.443 1.942-9.746 4.966-12.098 4.406C147.602 226.852 147.84 226.473 148.105 226.262zM120.629 222.162l11.265 4.1c0.262 0.211 0.501 0.59 0.233 0.654-2.352 0.56-10.656-2.464-12.098-4.406C119.866 222.288 120.29 222.152 120.629 222.162z" fill="#4c4c4e" data-fill-palette-color="accent"></path><path d="M84.234 124.265v60.949c0 3.742 3.044 6.787 6.785 6.787h97.961c3.742 0 6.785-3.045 6.785-6.787v-60.949c0-3.74-3.043-6.784-6.785-6.784H91.019C87.278 117.48 84.234 120.524 84.234 124.265zM156.514 159.231c0-8.212 6.658-14.87 14.871-14.87 8.211 0 14.867 6.658 14.867 14.87v3.001c0 1.588-1.297 2.885-2.883 2.885h-23.971c-1.586 0-2.885-1.297-2.885-2.885V159.231zM93.75 159.231c0-8.212 6.655-14.87 14.868-14.87 8.212 0 14.869 6.658 14.869 14.87v3.001c0 1.588-1.296 2.885-2.882 2.885H96.635c-1.587 0-2.885-1.297-2.885-2.885V159.231z" fill="#4c4c4e" data-fill-palette-color="accent"></path></g></svg></g></svg></g></svg></g><g transform="matrix(1,0,0,1,0,65.31905181488)"><svg viewBox="0 0 151.62493999999998 11.855154970650386" height="11.855154970650386" width="151.62493999999998"><g transform="matrix(1,0,0,1,0,0)"><svg width="151.62493999999998" viewBox="0.75 -37 638.79 49.95" height="11.855154970650386" data-palette-color="#4c4c4e"><path d="M23.2-34.75L29.5-34.75 18-12.6 18 0 12.3 0 12.3-12.6 0.75-34.75 7.1-34.75 15.15-17.7 23.2-34.75ZM45.95 0.45Q42.05 0.45 38.9-1.33 35.75-3.1 33.95-6.33 32.15-9.55 32.15-13.8L32.15-13.8Q32.15-18 34-21.25 35.85-24.5 39.05-26.25 42.25-28 46.2-28L46.2-28Q50.15-28 53.35-26.25 56.55-24.5 58.4-21.25 60.25-18 60.25-13.8L60.25-13.8Q60.25-9.6 58.35-6.35 56.45-3.1 53.17-1.33 49.9 0.45 45.95 0.45L45.95 0.45ZM45.95-4.5Q48.15-4.5 50.07-5.55 52-6.6 53.2-8.7 54.4-10.8 54.4-13.8L54.4-13.8Q54.4-16.8 53.25-18.88 52.1-20.95 50.2-22 48.3-23.05 46.1-23.05L46.1-23.05Q43.9-23.05 42.02-22 40.15-20.95 39.05-18.88 37.95-16.8 37.95-13.8L37.95-13.8Q37.95-9.35 40.22-6.93 42.5-4.5 45.95-4.5L45.95-4.5ZM85.15-27.55L90.84-27.55 90.84 0 85.15 0 85.15-3.25Q83.8-1.55 81.62-0.58 79.45 0.4 77 0.4L77 0.4Q73.75 0.4 71.17-0.95 68.59-2.3 67.12-4.95 65.65-7.6 65.65-11.35L65.65-11.35 65.65-27.55 71.3-27.55 71.3-12.2Q71.3-8.5 73.15-6.53 75-4.55 78.2-4.55L78.2-4.55Q81.4-4.55 83.27-6.53 85.15-8.5 85.15-12.2L85.15-12.2 85.15-27.55ZM104.04-23.55Q105.29-25.65 107.37-26.83 109.44-28 112.29-28L112.29-28 112.29-22.1 110.84-22.1Q107.49-22.1 105.77-20.4 104.04-18.7 104.04-14.5L104.04-14.5 104.04 0 98.34 0 98.34-27.55 104.04-27.55 104.04-23.55ZM161.04-34.75L167.14-34.75 167.14 0 161.44 0 161.44-23.8 150.84 0 146.89 0 136.24-23.8 136.24 0 130.54 0 130.54-34.75 136.69-34.75 148.89-7.5 161.04-34.75ZM199.89-14.45Q199.89-12.9 199.69-11.65L199.69-11.65 178.64-11.65Q178.89-8.35 181.09-6.35 183.29-4.35 186.49-4.35L186.49-4.35Q191.09-4.35 192.99-8.2L192.99-8.2 199.14-8.2Q197.89-4.4 194.61-1.98 191.34 0.45 186.49 0.45L186.49 0.45Q182.54 0.45 179.41-1.33 176.29-3.1 174.51-6.33 172.74-9.55 172.74-13.8L172.74-13.8Q172.74-18.05 174.46-21.28 176.19-24.5 179.31-26.25 182.44-28 186.49-28L186.49-28Q190.39-28 193.44-26.3 196.49-24.6 198.19-21.53 199.89-18.45 199.89-14.45L199.89-14.45ZM178.69-16.25L193.94-16.25Q193.89-19.4 191.69-21.3 189.49-23.2 186.24-23.2L186.24-23.2Q183.29-23.2 181.19-21.33 179.09-19.45 178.69-16.25L178.69-16.25ZM219.38-28Q222.63-28 225.21-26.65 227.78-25.3 229.23-22.65 230.68-20 230.68-16.25L230.68-16.25 230.68 0 225.03 0 225.03-15.4Q225.03-19.1 223.18-21.08 221.33-23.05 218.13-23.05L218.13-23.05Q214.93-23.05 213.06-21.08 211.18-19.1 211.18-15.4L211.18-15.4 211.18 0 205.48 0 205.48-27.55 211.18-27.55 211.18-24.4Q212.58-26.1 214.76-27.05 216.93-28 219.38-28L219.38-28ZM251.28-22.9L244.58-22.9 244.58-7.65Q244.58-6.1 245.31-5.43 246.03-4.75 247.78-4.75L247.78-4.75 251.28-4.75 251.28 0 246.78 0Q242.93 0 240.88-1.8 238.83-3.6 238.83-7.65L238.83-7.65 238.83-22.9 235.58-22.9 235.58-27.55 238.83-27.55 238.83-34.4 244.58-34.4 244.58-27.55 251.28-27.55 251.28-22.9ZM254.63-13.9Q254.63-18.05 256.35-21.25 258.08-24.45 261.05-26.23 264.03-28 267.63-28L267.63-28Q270.88-28 273.3-26.73 275.73-25.45 277.18-23.55L277.18-23.55 277.18-27.55 282.93-27.55 282.93 0 277.18 0 277.18-4.1Q275.73-2.15 273.23-0.85 270.73 0.45 267.53 0.45L267.53 0.45Q263.98 0.45 261.03-1.38 258.08-3.2 256.35-6.48 254.63-9.75 254.63-13.9L254.63-13.9ZM277.18-13.8Q277.18-16.65 276-18.75 274.83-20.85 272.93-21.95 271.03-23.05 268.83-23.05L268.83-23.05Q266.63-23.05 264.73-21.98 262.83-20.9 261.65-18.82 260.48-16.75 260.48-13.9L260.48-13.9Q260.48-11.05 261.65-8.9 262.83-6.75 264.75-5.63 266.68-4.5 268.83-4.5L268.83-4.5Q271.03-4.5 272.93-5.6 274.83-6.7 276-8.83 277.18-10.95 277.18-13.8L277.18-13.8ZM290.43-37L296.13-37 296.13 0 290.43 0 290.43-37ZM355.77-34.75L361.87-34.75 351.57 0 345.12 0 337.82-26.3 330.07 0 323.67 0.05 313.82-34.75 319.87-34.75 327.07-6.45 334.87-34.75 341.27-34.75 348.52-6.6 355.77-34.75ZM391.82-14.45Q391.82-12.9 391.62-11.65L391.62-11.65 370.57-11.65Q370.82-8.35 373.02-6.35 375.22-4.35 378.42-4.35L378.42-4.35Q383.02-4.35 384.92-8.2L384.92-8.2 391.07-8.2Q389.82-4.4 386.54-1.98 383.27 0.45 378.42 0.45L378.42 0.45Q374.47 0.45 371.34-1.33 368.22-3.1 366.44-6.33 364.67-9.55 364.67-13.8L364.67-13.8Q364.67-18.05 366.39-21.28 368.12-24.5 371.24-26.25 374.37-28 378.42-28L378.42-28Q382.32-28 385.37-26.3 388.42-24.6 390.12-21.53 391.82-18.45 391.82-14.45L391.82-14.45ZM370.62-16.25L385.87-16.25Q385.82-19.4 383.62-21.3 381.42-23.2 378.17-23.2L378.17-23.2Q375.22-23.2 373.12-21.33 371.02-19.45 370.62-16.25L370.62-16.25ZM397.42-37L403.12-37 403.12 0 397.42 0 397.42-37ZM410.61-37L416.31-37 416.31 0 410.61 0 410.61-37ZM437.71-28Q440.96-28 443.54-26.65 446.11-25.3 447.56-22.65 449.01-20 449.01-16.25L449.01-16.25 449.01 0 443.36 0 443.36-15.4Q443.36-19.1 441.51-21.08 439.66-23.05 436.46-23.05L436.46-23.05Q433.26-23.05 431.38-21.08 429.51-19.1 429.51-15.4L429.51-15.4 429.51 0 423.81 0 423.81-27.55 429.51-27.55 429.51-24.4Q430.91-26.1 433.08-27.05 435.26-28 437.71-28L437.71-28ZM481.51-14.45Q481.51-12.9 481.31-11.65L481.31-11.65 460.26-11.65Q460.51-8.35 462.71-6.35 464.91-4.35 468.11-4.35L468.11-4.35Q472.71-4.35 474.61-8.2L474.61-8.2 480.76-8.2Q479.51-4.4 476.23-1.98 472.96 0.45 468.11 0.45L468.11 0.45Q464.16 0.45 461.03-1.33 457.91-3.1 456.13-6.33 454.36-9.55 454.36-13.8L454.36-13.8Q454.36-18.05 456.08-21.28 457.81-24.5 460.93-26.25 464.06-28 468.11-28L468.11-28Q472.01-28 475.06-26.3 478.11-24.6 479.81-21.53 481.51-18.45 481.51-14.45L481.51-14.45ZM460.31-16.25L475.56-16.25Q475.51-19.4 473.31-21.3 471.11-23.2 467.86-23.2L467.86-23.2Q464.91-23.2 462.81-21.33 460.71-19.45 460.31-16.25L460.31-16.25ZM497.11 0.45Q493.86 0.45 491.28-0.73 488.71-1.9 487.21-3.93 485.71-5.95 485.61-8.45L485.61-8.45 491.5-8.45Q491.66-6.7 493.18-5.53 494.71-4.35 497-4.35L497-4.35Q499.41-4.35 500.73-5.28 502.06-6.2 502.06-7.65L502.06-7.65Q502.06-9.2 500.58-9.95 499.11-10.7 495.91-11.6L495.91-11.6Q492.81-12.45 490.86-13.25 488.91-14.05 487.48-15.7 486.06-17.35 486.06-20.05L486.06-20.05Q486.06-22.25 487.36-24.08 488.66-25.9 491.08-26.95 493.5-28 496.66-28L496.66-28Q501.36-28 504.23-25.63 507.11-23.25 507.31-19.15L507.31-19.15 501.61-19.15Q501.46-21 500.11-22.1 498.75-23.2 496.46-23.2L496.46-23.2Q494.21-23.2 493-22.35 491.81-21.5 491.81-20.1L491.81-20.1Q491.81-19 492.61-18.25 493.41-17.5 494.56-17.07 495.71-16.65 497.96-16L497.96-16Q500.96-15.2 502.88-14.38 504.81-13.55 506.21-11.95 507.61-10.35 507.66-7.7L507.66-7.7Q507.66-5.35 506.36-3.5 505.06-1.65 502.68-0.6 500.31 0.45 497.11 0.45L497.11 0.45ZM523.8 0.45Q520.55 0.45 517.98-0.73 515.4-1.9 513.9-3.93 512.4-5.95 512.3-8.45L512.3-8.45 518.2-8.45Q518.35-6.7 519.88-5.53 521.4-4.35 523.7-4.35L523.7-4.35Q526.1-4.35 527.43-5.28 528.75-6.2 528.75-7.65L528.75-7.65Q528.75-9.2 527.28-9.95 525.8-10.7 522.6-11.6L522.6-11.6Q519.5-12.45 517.55-13.25 515.6-14.05 514.18-15.7 512.75-17.35 512.75-20.05L512.75-20.05Q512.75-22.25 514.05-24.08 515.35-25.9 517.78-26.95 520.2-28 523.35-28L523.35-28Q528.05-28 530.93-25.63 533.8-23.25 534-19.15L534-19.15 528.3-19.15Q528.15-21 526.8-22.1 525.45-23.2 523.15-23.2L523.15-23.2Q520.9-23.2 519.7-22.35 518.5-21.5 518.5-20.1L518.5-20.1Q518.5-19 519.3-18.25 520.1-17.5 521.25-17.07 522.4-16.65 524.65-16L524.65-16Q527.65-15.2 529.58-14.38 531.5-13.55 532.9-11.95 534.3-10.35 534.35-7.7L534.35-7.7Q534.35-5.35 533.05-3.5 531.75-1.65 529.38-0.6 527 0.45 523.8 0.45L523.8 0.45ZM576.95 0L574.45-7.1 559.9-7.1 557.4 0 551.45 0 563.9-34.8 570.5-34.8 582.95 0 576.95 0ZM561.5-11.75L572.85-11.75 567.2-27.9 561.5-11.75ZM588.34-37L594.04-37 594.04 0 588.34 0 588.34-37ZM601.54-37L607.24-37 607.24 0 601.54 0 601.54-37ZM633.64-27.55L639.54-27.55 622.64 12.95 616.74 12.95 622.34-0.45 611.49-27.55 617.84-27.55 625.59-6.55 633.64-27.55Z" opacity="1" transform="matrix(1,0,0,1,0,0)" fill="#4c4c4e" class="slogan-text-1" data-fill-palette-color="secondary" id="text-1"></path></svg></g></svg></g></svg></g></svg></g><g></g></svg></g><defs></defs></svg><rect width="151.62493999999998" height="77.17420678553039" fill="none" stroke="none" visibility="hidden"></rect></g></svg></g></svg>